#!OML:ASF I:\Actors\actors\Patient Classification 2\Patient 1\Session 1\actor1.ASF
:FULLY-SPECIFIED
:DEGREES
710
root -0.851392 17.8982 6.01348 -4.93642 -7.61176 -5.64235
lowerback 11.4993 -1.18625 1.64233
upperback 1.84675 -1.30663 1.44653
thorax -4.5166 -0.664246 0.782381
lowerneck -6.13024 -7.02615 -8.42485
upperneck 27.6244 -8.45961 -0.899832
head 10.1598 -4.90846 0.193967
rclavicle 6.78353e-015 1.15295e-014
rhumerus -35.252 8.11747 -87.7126
rradius 125.116
rwrist -38.9055
rhand -15.0462 -43.3634
rfingers 7.12502
rthumb 11.1202 -73.0487
lclavicle 6.78353e-015 1.15295e-014
lhumerus -40.6811 -35.4215 109.633
lradius 104.454
lwrist 26.252
lhand -7.95925 -15.9656
lfingers 7.12502
lthumb 17.948 13.2262
rfemur 23.4435 1.66992 21.0143
rtibia -16.7197
rfoot -6.01863 -12.0282
rtoes -0.933999
lfemur 29.8686 4.28007 -10.3457
ltibia -27.9357
lfoot 3.98211 18.8849
ltoes -14.5636
711
root -0.833819 17.8959 6.00548 -4.83154 -7.85613 -5.68607
lowerback 11.0765 -1.12358 1.12745
upperback 2.21891 -1.31279 1.23722
thorax -3.88738 -0.66091 0.838878
lowerneck -6.29376 -6.91513 -8.72764
upperneck 27.9935 -8.06743 -1.49937
head 10.3071 -4.82776 0.0618158
rclavicle -4.08999e-014 4.77083e-015
rhumerus -35.121 8.08382 -88.0986
rradius 125.04
rwrist -39.0802
rhand -14.8783 -43.363
rfingers 7.12502
rthumb 11.2822 -73.0395
lclavicle -4.08999e-014 4.77083e-015
lhumerus -39.8518 -35.5493 109.331
lradius 104.455
lwrist 26.1499
lhand -7.79209 -16.0199
lfingers 7.12502
lthumb 18.1089 13.1571
rfemur 23.6061 1.61593 20.9411
rtibia -17.4373
rfoot -5.33692 -12.1447
rtoes -0.763046
lfemur 29.8946 4.26715 -10.4134
ltibia -28.1573
lfoot 4.10221 19.1509
ltoes -14.8578
712
root -0.818855 17.89 5.98984 -4.6877 -8.02936 -5.73229
lowerback 11.4557 -1.05089 0.889888
upperback 2.03439 -1.24945 0.905284
thorax -4.29227 -0.627891 0.628827
lowerneck -5.87597 -6.78135 -9.26946
upperneck 28.5276 -7.74957 -1.78618
head 10.4365 -4.78347 0.086724
rclavicle -2.21396e-014 1.27222e-014
rhumerus -35.8278 7.85757 -88.7037
rradius 125.046
rwrist -38.9549
rhand -14.7515 -43.0643
rfingers 7.12502
rthumb 11.4044 -72.7341
lclavicle -2.21396e-014 1.27222e-014
lhumerus -40.2635 -35.6099 109.676
lradius 104.618
lwrist 26.1563
lhand -7.40996 -15.9074
lfingers 7.12502
lthumb 18.4765 13.2352
rfemur 23.7971 1.5571 20.9029
rtibia -18.3071
rfoot -4.67023 -12.3485
rtoes -0.776567
lfemur 29.891 4.31945 -10.4362
ltibia -28.4951
lfoot 4.25898 19.3623
ltoes -14.9362
713
root -0.804958 17.8787 5.97138 -4.60848 -8.20677 -5.78698
lowerback 11.3294 -1.0111 0.416186
upperback 2.27802 -1.26489 0.759585
thorax -3.96117 -0.631081 0.739952
lowerneck -5.79281 -6.61615 -9.70669
upperneck 28.8398 -7.27124 -2.40594
head 10.525 -4.68456 -0.0127004
rclavicle -1.40143e-014 1.35174e-014
rhumerus -35.7447 7.95757 -89.0521
rradius 124.916
rwrist -38.8836
rhand -14.7453 -43.136
rfingers 7.12502
rthumb 11.4104 -72.8055
lclavicle -1.40143e-014 1.35174e-014
lhumerus -39.8623 -35.5405 109.698
lradius 104.724
lwrist 26.271
lhand -7.72159 -16.0427
lfingers 7.12502
lthumb 18.1767 13.128
rfemur 24.105 1.47938 20.8898
rtibia -19.2755
rfoot -3.93768 -12.5458
rtoes -1.49035
lfemur 30.0264 4.48754 -10.4014
ltibia -28.9684
lfoot 4.51155 19.4772
ltoes -14.8777
714
root -0.791407 17.8581 5.95007 -4.69968 -8.43142 -5.79994
lowerback 11.6161 -0.934057 0.0491332
upperback 2.42338 -1.21686 0.518234
thorax -3.96557 -0.604532 0.692272
lowerneck -5.60297 -6.42424 -9.92296
upperneck 29.3368 -6.74754 -3.21125
head 10.6459 -4.57085 -0.210801
rclavicle 5.96354e-015 -1.19271e-014
rhumerus -35.8797 7.89593 -89.5151
rradius 124.818
rwrist -38.8797
rhand -14.786 -43.1317
rfingers 7.12502
rthumb 11.3712 -72.8034
lclavicle 5.96354e-015 -1.19271e-014
lhumerus -39.7179 -35.5032 109.777
lradius 104.828
lwrist 26.3693
lhand -8.02566 -16.0483
lfingers 7.12502
lthumb 17.8841 13.1494
rfemur 24.6083 1.44588 20.8503
rtibia -20.2843
rfoot -3.23428 -12.7385
rtoes -2.03003
lfemur 30.3989 4.76126 -10.3758
ltibia -29.5608
lfoot 4.99268 19.4988
ltoes -15.1546
715
root -0.778953 17.8299 5.92435 -4.92882 -8.70998 -5.7975
lowerback 12.0254 -0.816212 -0.274874
upperback 2.65752 -1.11453 0.223584
thorax -3.94705 -0.552365 0.557392
lowerneck -5.57103 -6.22439 -9.98404
upperneck 29.8947 -6.23311 -3.9304
head 10.8203 -4.44014 -0.414811
rclavicle 1.01877e-014 3.97569e-015
rhumerus -35.8757 7.74007 -90.0251
rradius 124.688
rwrist -38.8123
rhand -14.8213 -42.7686
rfingers 7.12502
rthumb 11.3371 -72.4421
lclavicle 1.01877e-014 3.97569e-015
lhumerus -39.4263 -35.5967 109.646
lradius 104.858
lwrist 26.4357
lhand -7.70257 -15.8401
lfingers 7.12502
lthumb 18.195 13.3289
rfemur 25.2275 1.50805 20.824
rtibia -21.263
rfoot -2.65627 -12.9221
rtoes -2.09863
lfemur 30.9503 5.05444 -10.3425
ltibia -30.2198
lfoot 5.50696 19.5179
ltoes -15.3387
716
root -0.767819 17.8014 5.89222 -5.14508 -8.85918 -5.77483
lowerback 12.7723 -0.711914 -0.43358
upperback 2.67949 -1.01771 -0.154803
thorax -4.33948 -0.50266 0.248549
lowerneck -5.26212 -6.01729 -10.0556
upperneck 30.3805 -5.80875 -4.40389
head 10.9277 -4.32438 -0.529177
rclavicle 8.94531e-016 -9.54166e-015
rhumerus -36.1624 7.44796 -90.6084
rradius 124.599
rwrist -38.8033
rhand -14.9128 -42.3924
rfingers 7.12502
rthumb 11.2489 -72.0708
lclavicle 8.94531e-016 -9.54166e-015
lhumerus -39.4427 -35.8571 109.599
lradius 104.85
lwrist 26.5065
lhand -7.18024 -15.6578
lfingers 7.12502
lthumb 18.6975 13.4636
rfemur 25.7551 1.45957 20.7746
rtibia -22.1137
rfoot -2.15635 -13.0042
rtoes -2.66987
lfemur 31.4347 5.27362 -10.3294
ltibia -30.8812
lfoot 6.02617 19.4769
ltoes -15.2658
